<svg width="44" height="44" viewBox="0 0 44 44" fill="none" xmlns="http://www.w3.org/2000/svg">
<g id="Icon">
<rect id="elm/card/gray" width="44" height="44" rx="14" fill="#F4F9FD"/>
<g id="icn/messenger/fix/unselected">
<g id="icn/messenger/fix/unselected_2">
<path id="fix" fill-rule="evenodd" clip-rule="evenodd" d="M25.0867 12C26.2603 12 27.2117 12.9514 27.2117 14.125C27.2117 14.5032 27.1107 14.8746 26.9192 15.2009L25.9808 16.7991C25.4044 17.7809 25.4334 19.0045 26.0558 19.9579L27.5199 22.2009C28.2615 23.3369 27.9417 24.859 26.8057 25.6005C26.4064 25.8612 25.9398 26 25.463 26H22.9999V30.6C22.9999 31.1523 22.5522 31.6 21.9999 31.6C21.4871 31.6 21.0644 31.214 21.0067 30.7166L20.9999 30.6V26H18.5529C17.2001 26 16.1035 24.9034 16.1035 23.5507C16.1035 23.0707 16.2445 22.6013 16.509 22.2009L18.029 19.8993C18.6381 18.9771 18.6908 17.7948 18.1662 16.822L17.292 15.2009C16.723 14.1457 17.117 12.8291 18.1722 12.2601C18.4887 12.0894 18.8428 12 19.2024 12H25.0867ZM21.9999 24H25.463C25.5516 24 25.6383 23.9742 25.7125 23.9258C25.8972 23.8052 25.9657 23.5736 25.8877 23.3762L25.8452 23.2941L24.381 21.0511C23.3888 19.5312 23.3014 17.5994 24.1365 16.0021L24.2561 15.7865L25.1945 14.1882C25.2058 14.1691 25.2117 14.1472 25.2117 14.125C25.2117 14.0698 25.1759 14.0229 25.1262 14.0064L25.0867 14H19.2024C19.1742 14 19.1464 14.007 19.1215 14.0204C19.0551 14.0562 19.0221 14.1296 19.0344 14.2L19.0523 14.2515L19.9266 15.8727C20.7611 17.4202 20.719 19.2861 19.8306 20.7893L19.6979 21.0015L18.1779 23.303C18.1294 23.3765 18.1035 23.4626 18.1035 23.5507C18.1035 23.7713 18.2625 23.9547 18.4721 23.9928L18.5529 24H21.9999Z" fill="#0A1629"/>
</g>
</g>
</g>
</svg>
